<mxfile modified="2022-10-17T16:47:10.260Z" host="app.diagrams.net" agent="5.0 (Windows NT 10.0; Win64; x64) AppleWebKit/537.36 (KHTML, like Gecko) Chrome/106.0.0.0 Safari/537.36" etag="l1j2p1imt5cfBCKxBiwD" version="15.0.6" type="github">
  <diagram id="Ht1M8jgEwFfnCIfOTk4-" name="Page-1">
    <mxGraphModel dx="4740" dy="2647" grid="1" gridSize="10" guides="1" tooltips="1" connect="1" arrows="1" fold="1" page="1" pageScale="1" pageWidth="827" pageHeight="1169" math="0" shadow="0">
      <root>
        <mxCell id="0" />
        <mxCell id="1" parent="0" />
        <mxCell id="fuVhs1v6F_ChxewEycI6-27" value="" style="rounded=0;whiteSpace=wrap;html=1;" parent="1" vertex="1">
          <mxGeometry x="340" y="220" width="1770" height="2420" as="geometry" />
        </mxCell>
        <mxCell id="5Wh0mrcsmfjm4KpivzI_-6" value="" style="sketch=0;outlineConnect=0;fontColor=#232F3E;gradientColor=none;fillColor=#232F3D;strokeColor=none;dashed=0;verticalLabelPosition=bottom;verticalAlign=top;align=center;html=1;fontSize=12;fontStyle=0;aspect=fixed;pointerEvents=1;shape=mxgraph.aws4.user;" parent="1" vertex="1">
          <mxGeometry x="160" y="470" width="78" height="78" as="geometry" />
        </mxCell>
        <mxCell id="5Wh0mrcsmfjm4KpivzI_-8" value="" style="rounded=0;whiteSpace=wrap;html=1;" parent="1" vertex="1">
          <mxGeometry x="470" y="306" width="635.86" height="704" as="geometry" />
        </mxCell>
        <mxCell id="5Wh0mrcsmfjm4KpivzI_-15" value="" style="endArrow=classic;html=1;rounded=0;entryX=0;entryY=0.5;entryDx=0;entryDy=0;" parent="1" source="5Wh0mrcsmfjm4KpivzI_-6" target="5Wh0mrcsmfjm4KpivzI_-19" edge="1">
          <mxGeometry width="50" height="50" relative="1" as="geometry">
            <mxPoint x="230" y="520" as="sourcePoint" />
            <mxPoint x="370" y="490" as="targetPoint" />
          </mxGeometry>
        </mxCell>
        <mxCell id="5Wh0mrcsmfjm4KpivzI_-16" value="" style="shape=image;html=1;verticalAlign=top;verticalLabelPosition=bottom;labelBackgroundColor=#ffffff;imageAspect=0;aspect=fixed;image=https://cdn1.iconfinder.com/data/icons/ionicons-fill-vol-2/512/logo-react-128.png" parent="1" vertex="1">
          <mxGeometry x="340" y="220" width="68" height="68" as="geometry" />
        </mxCell>
        <mxCell id="5Wh0mrcsmfjm4KpivzI_-18" value="&lt;font face=&quot;Comic Sans MS&quot; style=&quot;font-size: 14px;&quot;&gt;React&lt;/font&gt;" style="text;html=1;strokeColor=none;fillColor=none;align=center;verticalAlign=middle;whiteSpace=wrap;rounded=0;" parent="1" vertex="1">
          <mxGeometry x="344" y="274" width="60" height="30" as="geometry" />
        </mxCell>
        <mxCell id="5Wh0mrcsmfjm4KpivzI_-19" value="" style="rounded=0;whiteSpace=wrap;html=1;fontFamily=Comic Sans MS;fontSize=14;" parent="1" vertex="1">
          <mxGeometry x="587.93" y="399" width="400" height="220" as="geometry" />
        </mxCell>
        <mxCell id="5Wh0mrcsmfjm4KpivzI_-20" value="Room ID = 1" style="text;html=1;strokeColor=none;fillColor=none;align=center;verticalAlign=middle;whiteSpace=wrap;rounded=0;fontFamily=Comic Sans MS;fontSize=14;" parent="1" vertex="1">
          <mxGeometry x="587.93" y="399" width="92.07" height="30" as="geometry" />
        </mxCell>
        <mxCell id="5Wh0mrcsmfjm4KpivzI_-21" value="" style="rounded=0;whiteSpace=wrap;html=1;fontFamily=Comic Sans MS;fontSize=14;" parent="1" vertex="1">
          <mxGeometry x="587.93" y="650" width="400" height="80" as="geometry" />
        </mxCell>
        <mxCell id="5Wh0mrcsmfjm4KpivzI_-22" value="Room ID = 2" style="text;html=1;strokeColor=none;fillColor=none;align=center;verticalAlign=middle;whiteSpace=wrap;rounded=0;fontFamily=Comic Sans MS;fontSize=14;" parent="1" vertex="1">
          <mxGeometry x="587.93" y="650" width="92.07" height="30" as="geometry" />
        </mxCell>
        <mxCell id="5Wh0mrcsmfjm4KpivzI_-23" value="" style="rounded=0;whiteSpace=wrap;html=1;fontFamily=Comic Sans MS;fontSize=14;" parent="1" vertex="1">
          <mxGeometry x="587.93" y="760" width="400" height="50" as="geometry" />
        </mxCell>
        <mxCell id="5Wh0mrcsmfjm4KpivzI_-24" value="Room ID = 3" style="text;html=1;strokeColor=none;fillColor=none;align=center;verticalAlign=middle;whiteSpace=wrap;rounded=0;fontFamily=Comic Sans MS;fontSize=14;" parent="1" vertex="1">
          <mxGeometry x="587.93" y="760" width="92.07" height="30" as="geometry" />
        </mxCell>
        <mxCell id="5Wh0mrcsmfjm4KpivzI_-26" value="&lt;h2&gt;&lt;b&gt;．．．&lt;/b&gt;&lt;/h2&gt;" style="text;html=1;strokeColor=none;fillColor=none;align=center;verticalAlign=middle;whiteSpace=wrap;rounded=0;fontFamily=Comic Sans MS;fontSize=14;rotation=90;" parent="1" vertex="1">
          <mxGeometry x="757.9300000000001" y="840" width="60" height="30" as="geometry" />
        </mxCell>
        <mxCell id="5Wh0mrcsmfjm4KpivzI_-27" value="" style="rounded=0;whiteSpace=wrap;html=1;fontFamily=Comic Sans MS;fontSize=14;" parent="1" vertex="1">
          <mxGeometry x="587.93" y="900" width="400" height="50" as="geometry" />
        </mxCell>
        <mxCell id="5Wh0mrcsmfjm4KpivzI_-28" value="Room ID = ..." style="text;html=1;strokeColor=none;fillColor=none;align=center;verticalAlign=middle;whiteSpace=wrap;rounded=0;fontFamily=Comic Sans MS;fontSize=14;" parent="1" vertex="1">
          <mxGeometry x="587.93" y="900" width="92.07" height="30" as="geometry" />
        </mxCell>
        <mxCell id="5Wh0mrcsmfjm4KpivzI_-29" value="User" style="text;html=1;strokeColor=none;fillColor=none;align=center;verticalAlign=middle;whiteSpace=wrap;rounded=0;fontFamily=Comic Sans MS;fontSize=14;" parent="1" vertex="1">
          <mxGeometry x="169" y="555" width="60" height="30" as="geometry" />
        </mxCell>
        <mxCell id="5Wh0mrcsmfjm4KpivzI_-30" value="" style="sketch=0;outlineConnect=0;fontColor=#232F3E;gradientColor=none;fillColor=#232F3D;strokeColor=none;dashed=0;verticalLabelPosition=bottom;verticalAlign=top;align=center;html=1;fontSize=12;fontStyle=0;aspect=fixed;pointerEvents=1;shape=mxgraph.aws4.user;" parent="1" vertex="1">
          <mxGeometry x="160" y="600.5" width="78" height="78" as="geometry" />
        </mxCell>
        <mxCell id="5Wh0mrcsmfjm4KpivzI_-31" value="User" style="text;html=1;strokeColor=none;fillColor=none;align=center;verticalAlign=middle;whiteSpace=wrap;rounded=0;fontFamily=Comic Sans MS;fontSize=14;" parent="1" vertex="1">
          <mxGeometry x="169" y="685.5" width="60" height="30" as="geometry" />
        </mxCell>
        <mxCell id="5Wh0mrcsmfjm4KpivzI_-32" value="" style="sketch=0;outlineConnect=0;fontColor=#232F3E;gradientColor=none;fillColor=#232F3D;strokeColor=none;dashed=0;verticalLabelPosition=bottom;verticalAlign=top;align=center;html=1;fontSize=12;fontStyle=0;aspect=fixed;pointerEvents=1;shape=mxgraph.aws4.user;" parent="1" vertex="1">
          <mxGeometry x="160" y="727.5" width="78" height="78" as="geometry" />
        </mxCell>
        <mxCell id="5Wh0mrcsmfjm4KpivzI_-33" value="User" style="text;html=1;strokeColor=none;fillColor=none;align=center;verticalAlign=middle;whiteSpace=wrap;rounded=0;fontFamily=Comic Sans MS;fontSize=14;" parent="1" vertex="1">
          <mxGeometry x="169" y="812.5" width="60" height="30" as="geometry" />
        </mxCell>
        <mxCell id="5Wh0mrcsmfjm4KpivzI_-34" value="" style="sketch=0;outlineConnect=0;fontColor=#232F3E;gradientColor=none;fillColor=#232F3D;strokeColor=none;dashed=0;verticalLabelPosition=bottom;verticalAlign=top;align=center;html=1;fontSize=12;fontStyle=0;aspect=fixed;pointerEvents=1;shape=mxgraph.aws4.user;" parent="1" vertex="1">
          <mxGeometry x="160" y="857.5" width="78" height="78" as="geometry" />
        </mxCell>
        <mxCell id="5Wh0mrcsmfjm4KpivzI_-35" value="User" style="text;html=1;strokeColor=none;fillColor=none;align=center;verticalAlign=middle;whiteSpace=wrap;rounded=0;fontFamily=Comic Sans MS;fontSize=14;" parent="1" vertex="1">
          <mxGeometry x="169" y="942.5" width="60" height="30" as="geometry" />
        </mxCell>
        <mxCell id="5Wh0mrcsmfjm4KpivzI_-36" value="" style="endArrow=classic;html=1;rounded=0;entryX=0;entryY=0.5;entryDx=0;entryDy=0;" parent="1" target="5Wh0mrcsmfjm4KpivzI_-19" edge="1">
          <mxGeometry width="50" height="50" relative="1" as="geometry">
            <mxPoint x="240" y="640" as="sourcePoint" />
            <mxPoint x="580" y="510" as="targetPoint" />
          </mxGeometry>
        </mxCell>
        <mxCell id="5Wh0mrcsmfjm4KpivzI_-37" value="" style="endArrow=classic;html=1;rounded=0;entryX=0;entryY=0.5;entryDx=0;entryDy=0;" parent="1" target="5Wh0mrcsmfjm4KpivzI_-21" edge="1">
          <mxGeometry width="50" height="50" relative="1" as="geometry">
            <mxPoint x="240" y="640" as="sourcePoint" />
            <mxPoint x="607.9299999999996" y="529" as="targetPoint" />
          </mxGeometry>
        </mxCell>
        <mxCell id="5Wh0mrcsmfjm4KpivzI_-38" value="" style="endArrow=classic;html=1;rounded=0;" parent="1" edge="1">
          <mxGeometry width="50" height="50" relative="1" as="geometry">
            <mxPoint x="240" y="775" as="sourcePoint" />
            <mxPoint x="590" y="780" as="targetPoint" />
          </mxGeometry>
        </mxCell>
        <mxCell id="5Wh0mrcsmfjm4KpivzI_-39" value="" style="endArrow=classic;html=1;rounded=0;entryX=0;entryY=1;entryDx=0;entryDy=0;" parent="1" target="5Wh0mrcsmfjm4KpivzI_-28" edge="1">
          <mxGeometry width="50" height="50" relative="1" as="geometry">
            <mxPoint x="240" y="900" as="sourcePoint" />
            <mxPoint x="607.9299999999998" y="710" as="targetPoint" />
          </mxGeometry>
        </mxCell>
        <mxCell id="5Wh0mrcsmfjm4KpivzI_-41" value="" style="rounded=0;whiteSpace=wrap;html=1;fontFamily=Comic Sans MS;fontSize=14;" parent="1" vertex="1">
          <mxGeometry x="1270" y="230" width="550" height="834" as="geometry" />
        </mxCell>
        <mxCell id="5Wh0mrcsmfjm4KpivzI_-43" value="" style="rounded=0;whiteSpace=wrap;html=1;fontFamily=Comic Sans MS;fontSize=14;" parent="1" vertex="1">
          <mxGeometry x="1340" y="267" width="410" height="70" as="geometry" />
        </mxCell>
        <mxCell id="5Wh0mrcsmfjm4KpivzI_-44" value="&lt;font face=&quot;Verdana&quot;&gt;玩投票&lt;/font&gt;" style="text;html=1;strokeColor=none;fillColor=none;align=center;verticalAlign=middle;whiteSpace=wrap;rounded=0;fontFamily=Comic Sans MS;fontSize=14;" parent="1" vertex="1">
          <mxGeometry x="1340" y="267" width="60" height="30" as="geometry" />
        </mxCell>
        <mxCell id="5Wh0mrcsmfjm4KpivzI_-45" value="POST&amp;nbsp; 選項: string" style="text;html=1;strokeColor=none;fillColor=none;align=left;verticalAlign=middle;whiteSpace=wrap;rounded=0;fontFamily=Verdana;fontSize=14;" parent="1" vertex="1">
          <mxGeometry x="1400" y="297" width="190" height="30" as="geometry" />
        </mxCell>
        <mxCell id="5Wh0mrcsmfjm4KpivzI_-46" value="" style="rounded=0;whiteSpace=wrap;html=1;fontFamily=Verdana;fontSize=14;" parent="1" vertex="1">
          <mxGeometry x="480" y="1160" width="630" height="720" as="geometry" />
        </mxCell>
        <mxCell id="5Wh0mrcsmfjm4KpivzI_-50" value="" style="shape=image;html=1;verticalAlign=top;verticalLabelPosition=bottom;labelBackgroundColor=#ffffff;imageAspect=0;aspect=fixed;image=https://cdn4.iconfinder.com/data/icons/education-and-school-glyph-24-px/24/Instructor_professor_teacher_teaching_tutor_-128.png;fontFamily=Verdana;fontSize=14;" parent="1" vertex="1">
          <mxGeometry x="157.5" y="1326" width="88" height="88" as="geometry" />
        </mxCell>
        <mxCell id="5Wh0mrcsmfjm4KpivzI_-51" value="Teacher" style="text;html=1;strokeColor=none;fillColor=none;align=center;verticalAlign=middle;whiteSpace=wrap;rounded=0;fontFamily=Verdana;fontSize=14;" parent="1" vertex="1">
          <mxGeometry x="166.5" y="1414" width="60" height="30" as="geometry" />
        </mxCell>
        <mxCell id="5Wh0mrcsmfjm4KpivzI_-52" value="" style="shape=image;html=1;verticalAlign=top;verticalLabelPosition=bottom;labelBackgroundColor=#ffffff;imageAspect=0;aspect=fixed;image=https://cdn4.iconfinder.com/data/icons/education-and-school-glyph-24-px/24/Instructor_professor_teacher_teaching_tutor_-128.png;fontFamily=Verdana;fontSize=14;" parent="1" vertex="1">
          <mxGeometry x="152.5" y="1486" width="88" height="88" as="geometry" />
        </mxCell>
        <mxCell id="5Wh0mrcsmfjm4KpivzI_-53" value="Teacher" style="text;html=1;strokeColor=none;fillColor=none;align=center;verticalAlign=middle;whiteSpace=wrap;rounded=0;fontFamily=Verdana;fontSize=14;" parent="1" vertex="1">
          <mxGeometry x="161.5" y="1574" width="60" height="30" as="geometry" />
        </mxCell>
        <mxCell id="5Wh0mrcsmfjm4KpivzI_-54" value="" style="shape=image;html=1;verticalAlign=top;verticalLabelPosition=bottom;labelBackgroundColor=#ffffff;imageAspect=0;aspect=fixed;image=https://cdn4.iconfinder.com/data/icons/education-and-school-glyph-24-px/24/Instructor_professor_teacher_teaching_tutor_-128.png;fontFamily=Verdana;fontSize=14;" parent="1" vertex="1">
          <mxGeometry x="152.5" y="1636" width="88" height="88" as="geometry" />
        </mxCell>
        <mxCell id="5Wh0mrcsmfjm4KpivzI_-55" value="Teacher" style="text;html=1;strokeColor=none;fillColor=none;align=center;verticalAlign=middle;whiteSpace=wrap;rounded=0;fontFamily=Verdana;fontSize=14;" parent="1" vertex="1">
          <mxGeometry x="161.5" y="1724" width="60" height="30" as="geometry" />
        </mxCell>
        <mxCell id="fuVhs1v6F_ChxewEycI6-5" value="" style="rounded=0;whiteSpace=wrap;html=1;fontFamily=Comic Sans MS;fontSize=14;" parent="1" vertex="1">
          <mxGeometry x="1340" y="362" width="410" height="70" as="geometry" />
        </mxCell>
        <mxCell id="fuVhs1v6F_ChxewEycI6-6" value="&lt;font face=&quot;Verdana&quot;&gt;想點子&lt;/font&gt;" style="text;html=1;strokeColor=none;fillColor=none;align=center;verticalAlign=middle;whiteSpace=wrap;rounded=0;fontFamily=Comic Sans MS;fontSize=14;" parent="1" vertex="1">
          <mxGeometry x="1340" y="362" width="60" height="30" as="geometry" />
        </mxCell>
        <mxCell id="fuVhs1v6F_ChxewEycI6-7" value="POST&amp;nbsp; 點子: string" style="text;html=1;strokeColor=none;fillColor=none;align=left;verticalAlign=middle;whiteSpace=wrap;rounded=0;fontFamily=Verdana;fontSize=14;" parent="1" vertex="1">
          <mxGeometry x="1400" y="392" width="190" height="30" as="geometry" />
        </mxCell>
        <mxCell id="fuVhs1v6F_ChxewEycI6-8" value="" style="rounded=0;whiteSpace=wrap;html=1;fontFamily=Comic Sans MS;fontSize=14;" parent="1" vertex="1">
          <mxGeometry x="1340" y="457" width="410" height="70" as="geometry" />
        </mxCell>
        <mxCell id="fuVhs1v6F_ChxewEycI6-9" value="&lt;font face=&quot;Verdana&quot;&gt;測測驗&lt;/font&gt;" style="text;html=1;strokeColor=none;fillColor=none;align=center;verticalAlign=middle;whiteSpace=wrap;rounded=0;fontFamily=Comic Sans MS;fontSize=14;" parent="1" vertex="1">
          <mxGeometry x="1340" y="457" width="60" height="30" as="geometry" />
        </mxCell>
        <mxCell id="fuVhs1v6F_ChxewEycI6-10" value="POST&amp;nbsp; 答案: string" style="text;html=1;strokeColor=none;fillColor=none;align=left;verticalAlign=middle;whiteSpace=wrap;rounded=0;fontFamily=Verdana;fontSize=14;" parent="1" vertex="1">
          <mxGeometry x="1400" y="487" width="190" height="30" as="geometry" />
        </mxCell>
        <mxCell id="fuVhs1v6F_ChxewEycI6-11" value="" style="rounded=0;whiteSpace=wrap;html=1;fontFamily=Comic Sans MS;fontSize=14;" parent="1" vertex="1">
          <mxGeometry x="1340" y="547" width="410" height="70" as="geometry" />
        </mxCell>
        <mxCell id="fuVhs1v6F_ChxewEycI6-12" value="&lt;font face=&quot;Verdana&quot;&gt;評評分&lt;/font&gt;" style="text;html=1;strokeColor=none;fillColor=none;align=center;verticalAlign=middle;whiteSpace=wrap;rounded=0;fontFamily=Comic Sans MS;fontSize=14;" parent="1" vertex="1">
          <mxGeometry x="1340" y="547" width="60" height="30" as="geometry" />
        </mxCell>
        <mxCell id="fuVhs1v6F_ChxewEycI6-13" value="POST&amp;nbsp; 分數: int[]" style="text;html=1;strokeColor=none;fillColor=none;align=left;verticalAlign=middle;whiteSpace=wrap;rounded=0;fontFamily=Verdana;fontSize=14;" parent="1" vertex="1">
          <mxGeometry x="1400" y="577" width="190" height="30" as="geometry" />
        </mxCell>
        <mxCell id="fuVhs1v6F_ChxewEycI6-14" value="" style="rounded=0;whiteSpace=wrap;html=1;fontFamily=Comic Sans MS;fontSize=14;" parent="1" vertex="1">
          <mxGeometry x="1340" y="639.5" width="410" height="70" as="geometry" />
        </mxCell>
        <mxCell id="fuVhs1v6F_ChxewEycI6-15" value="&lt;font face=&quot;Verdana&quot;&gt;討討論&lt;/font&gt;" style="text;html=1;strokeColor=none;fillColor=none;align=center;verticalAlign=middle;whiteSpace=wrap;rounded=0;fontFamily=Comic Sans MS;fontSize=14;" parent="1" vertex="1">
          <mxGeometry x="1340" y="639.5" width="60" height="30" as="geometry" />
        </mxCell>
        <mxCell id="fuVhs1v6F_ChxewEycI6-16" value="POST&amp;nbsp; 評論: string" style="text;html=1;strokeColor=none;fillColor=none;align=left;verticalAlign=middle;whiteSpace=wrap;rounded=0;fontFamily=Verdana;fontSize=14;" parent="1" vertex="1">
          <mxGeometry x="1400" y="669.5" width="190" height="30" as="geometry" />
        </mxCell>
        <mxCell id="fuVhs1v6F_ChxewEycI6-17" value="" style="rounded=0;whiteSpace=wrap;html=1;fontFamily=Comic Sans MS;fontSize=14;" parent="1" vertex="1">
          <mxGeometry x="1340" y="737" width="410" height="70" as="geometry" />
        </mxCell>
        <mxCell id="fuVhs1v6F_ChxewEycI6-18" value="&lt;font face=&quot;Verdana&quot;&gt;比一比&lt;/font&gt;" style="text;html=1;strokeColor=none;fillColor=none;align=center;verticalAlign=middle;whiteSpace=wrap;rounded=0;fontFamily=Comic Sans MS;fontSize=14;" parent="1" vertex="1">
          <mxGeometry x="1340" y="737" width="60" height="30" as="geometry" />
        </mxCell>
        <mxCell id="fuVhs1v6F_ChxewEycI6-19" value="POST&amp;nbsp; 排序: int[]" style="text;html=1;strokeColor=none;fillColor=none;align=left;verticalAlign=middle;whiteSpace=wrap;rounded=0;fontFamily=Verdana;fontSize=14;" parent="1" vertex="1">
          <mxGeometry x="1400" y="767" width="190" height="30" as="geometry" />
        </mxCell>
        <mxCell id="fuVhs1v6F_ChxewEycI6-20" value="" style="rounded=0;whiteSpace=wrap;html=1;fontFamily=Comic Sans MS;fontSize=14;" parent="1" vertex="1">
          <mxGeometry x="1340" y="827" width="410" height="70" as="geometry" />
        </mxCell>
        <mxCell id="fuVhs1v6F_ChxewEycI6-21" value="&lt;font face=&quot;Verdana&quot;&gt;抽抽獎&lt;/font&gt;" style="text;html=1;strokeColor=none;fillColor=none;align=center;verticalAlign=middle;whiteSpace=wrap;rounded=0;fontFamily=Comic Sans MS;fontSize=14;" parent="1" vertex="1">
          <mxGeometry x="1340" y="827" width="60" height="30" as="geometry" />
        </mxCell>
        <mxCell id="fuVhs1v6F_ChxewEycI6-22" value="POST&amp;nbsp; User資料: json" style="text;html=1;strokeColor=none;fillColor=none;align=left;verticalAlign=middle;whiteSpace=wrap;rounded=0;fontFamily=Verdana;fontSize=14;" parent="1" vertex="1">
          <mxGeometry x="1400" y="857" width="190" height="30" as="geometry" />
        </mxCell>
        <mxCell id="fuVhs1v6F_ChxewEycI6-23" value="" style="rounded=0;whiteSpace=wrap;html=1;fontFamily=Comic Sans MS;fontSize=14;" parent="1" vertex="1">
          <mxGeometry x="1340" y="917" width="410" height="120" as="geometry" />
        </mxCell>
        <mxCell id="fuVhs1v6F_ChxewEycI6-24" value="&lt;font face=&quot;Verdana&quot;&gt;刮刮樂&lt;/font&gt;" style="text;html=1;strokeColor=none;fillColor=none;align=center;verticalAlign=middle;whiteSpace=wrap;rounded=0;fontFamily=Comic Sans MS;fontSize=14;" parent="1" vertex="1">
          <mxGeometry x="1340" y="917" width="60" height="30" as="geometry" />
        </mxCell>
        <mxCell id="fuVhs1v6F_ChxewEycI6-25" value="GET&lt;span style=&quot;white-space: pre;&quot;&gt; &lt;/span&gt;刮刮樂結果: string&amp;nbsp;" style="text;html=1;strokeColor=none;fillColor=none;align=left;verticalAlign=middle;whiteSpace=wrap;rounded=0;fontFamily=Verdana;fontSize=14;" parent="1" vertex="1">
          <mxGeometry x="1400" y="947" width="190" height="30" as="geometry" />
        </mxCell>
        <mxCell id="fuVhs1v6F_ChxewEycI6-26" value="POST 有沒有刮: bool&amp;nbsp;" style="text;html=1;strokeColor=none;fillColor=none;align=left;verticalAlign=middle;whiteSpace=wrap;rounded=0;fontFamily=Verdana;fontSize=14;" parent="1" vertex="1">
          <mxGeometry x="1400" y="986" width="190" height="30" as="geometry" />
        </mxCell>
        <mxCell id="fuVhs1v6F_ChxewEycI6-28" value="" style="rounded=0;whiteSpace=wrap;html=1;" parent="1" vertex="1">
          <mxGeometry x="2240" y="220" width="1710" height="2420" as="geometry" />
        </mxCell>
        <mxCell id="Qel08UWcGqEZ8Sk4PbpH-2" value="" style="shape=image;html=1;verticalAlign=top;verticalLabelPosition=bottom;labelBackgroundColor=#ffffff;imageAspect=0;aspect=fixed;image=https://cdn2.iconfinder.com/data/icons/boxicons-logos/24/bxl-nodejs-128.png" vertex="1" parent="1">
          <mxGeometry x="2240" y="220.5" width="77" height="77" as="geometry" />
        </mxCell>
        <mxCell id="Qel08UWcGqEZ8Sk4PbpH-9" value="&lt;font style=&quot;font-size: 18px&quot;&gt;目前活動&lt;/font&gt;" style="text;html=1;strokeColor=none;fillColor=none;align=center;verticalAlign=middle;whiteSpace=wrap;rounded=0;" vertex="1" parent="1">
          <mxGeometry x="1270" y="230" width="110" height="27" as="geometry" />
        </mxCell>
        <mxCell id="Qel08UWcGqEZ8Sk4PbpH-10" value="&lt;font style=&quot;font-size: 21px&quot;&gt;房間導向&lt;/font&gt;" style="text;html=1;strokeColor=none;fillColor=none;align=center;verticalAlign=middle;whiteSpace=wrap;rounded=0;" vertex="1" parent="1">
          <mxGeometry x="470" y="310" width="110" height="20" as="geometry" />
        </mxCell>
        <mxCell id="Qel08UWcGqEZ8Sk4PbpH-11" value="" style="shape=flexArrow;endArrow=classic;html=1;exitX=1;exitY=0.55;exitDx=0;exitDy=0;exitPerimeter=0;entryX=0;entryY=0.5;entryDx=0;entryDy=0;" edge="1" parent="1" source="5Wh0mrcsmfjm4KpivzI_-19" target="5Wh0mrcsmfjm4KpivzI_-41">
          <mxGeometry width="50" height="50" relative="1" as="geometry">
            <mxPoint x="1160" y="650" as="sourcePoint" />
            <mxPoint x="1210" y="600" as="targetPoint" />
          </mxGeometry>
        </mxCell>
        <mxCell id="Qel08UWcGqEZ8Sk4PbpH-12" value="" style="endArrow=none;dashed=1;html=1;dashPattern=1 3;strokeWidth=2;exitX=1;exitY=0.5;exitDx=0;exitDy=0;entryX=0;entryY=0.5;entryDx=0;entryDy=0;" edge="1" parent="1" source="5Wh0mrcsmfjm4KpivzI_-21" target="5Wh0mrcsmfjm4KpivzI_-41">
          <mxGeometry width="50" height="50" relative="1" as="geometry">
            <mxPoint x="1160" y="650" as="sourcePoint" />
            <mxPoint x="1210" y="600" as="targetPoint" />
          </mxGeometry>
        </mxCell>
        <mxCell id="Qel08UWcGqEZ8Sk4PbpH-13" value="" style="endArrow=none;dashed=1;html=1;dashPattern=1 3;strokeWidth=2;exitX=1;exitY=0.5;exitDx=0;exitDy=0;entryX=0;entryY=0.5;entryDx=0;entryDy=0;" edge="1" parent="1" source="5Wh0mrcsmfjm4KpivzI_-23" target="5Wh0mrcsmfjm4KpivzI_-41">
          <mxGeometry width="50" height="50" relative="1" as="geometry">
            <mxPoint x="997.9299999999998" y="700" as="sourcePoint" />
            <mxPoint x="1270" y="690" as="targetPoint" />
          </mxGeometry>
        </mxCell>
        <mxCell id="Qel08UWcGqEZ8Sk4PbpH-14" value="" style="endArrow=none;dashed=1;html=1;dashPattern=1 3;strokeWidth=2;exitX=1;exitY=0.5;exitDx=0;exitDy=0;entryX=0;entryY=0.5;entryDx=0;entryDy=0;" edge="1" parent="1" source="5Wh0mrcsmfjm4KpivzI_-27" target="5Wh0mrcsmfjm4KpivzI_-41">
          <mxGeometry width="50" height="50" relative="1" as="geometry">
            <mxPoint x="997.9299999999998" y="795" as="sourcePoint" />
            <mxPoint x="1280" y="700" as="targetPoint" />
          </mxGeometry>
        </mxCell>
        <mxCell id="Qel08UWcGqEZ8Sk4PbpH-15" value="&lt;font style=&quot;font-size: 16px&quot;&gt;Node.js&lt;/font&gt;" style="text;html=1;strokeColor=none;fillColor=none;align=center;verticalAlign=middle;whiteSpace=wrap;rounded=0;" vertex="1" parent="1">
          <mxGeometry x="2258.5" y="292" width="40" height="20" as="geometry" />
        </mxCell>
        <mxCell id="Qel08UWcGqEZ8Sk4PbpH-16" value="" style="rounded=0;whiteSpace=wrap;html=1;fontFamily=Comic Sans MS;fontSize=14;" vertex="1" parent="1">
          <mxGeometry x="2728.33" y="360" width="733.33" height="1112" as="geometry" />
        </mxCell>
        <mxCell id="Qel08UWcGqEZ8Sk4PbpH-17" value="&lt;font style=&quot;font-size: 17px&quot;&gt;Student&lt;/font&gt;" style="text;html=1;strokeColor=none;fillColor=none;align=center;verticalAlign=middle;whiteSpace=wrap;rounded=0;" vertex="1" parent="1">
          <mxGeometry x="2740" y="362" width="40" height="20" as="geometry" />
        </mxCell>
        <mxCell id="Qel08UWcGqEZ8Sk4PbpH-18" value="" style="rounded=0;whiteSpace=wrap;html=1;" vertex="1" parent="1">
          <mxGeometry x="4135" y="220.5" width="1710" height="2420" as="geometry" />
        </mxCell>
        <mxCell id="Qel08UWcGqEZ8Sk4PbpH-19" value="" style="aspect=fixed;html=1;points=[];align=center;image;fontSize=12;image=img/lib/mscae/Cache_Redis_Product.svg;" vertex="1" parent="1">
          <mxGeometry x="4150" y="230" width="83.33" height="70" as="geometry" />
        </mxCell>
        <mxCell id="Qel08UWcGqEZ8Sk4PbpH-20" value="&lt;font style=&quot;font-size: 18px&quot;&gt;Redis&lt;/font&gt;" style="text;html=1;strokeColor=none;fillColor=none;align=center;verticalAlign=middle;whiteSpace=wrap;rounded=0;" vertex="1" parent="1">
          <mxGeometry x="4165" y="297" width="53.33" height="38" as="geometry" />
        </mxCell>
      </root>
    </mxGraphModel>
  </diagram>
</mxfile>
